# xmcd
#
# Track frame offsets:
# 150
# 11111
# 24754
# 41528
# 53092
# 70479
# 83770
# 90597
# 110938
# 122863
# 135514
# 146408
# 162625
# 172378
# 183857
# 199517
# 216319
# 229053
# 239558
# 255524
#
# Disc length: 3560 seconds
#
#
# Revision: 0
# Processed by: cddbd v1.5.2PL0 Copyright (c) Steve Scherf et al.
# Submitted via: FreeRIP 2.945 
#
DISCID=200de614
DTITLE=Herriot-J1992 - Every-Living-Thing06
DYEAR=1992
DGENRE=Jungle
TTITLE0=ELT 0601
TTITLE1=ELT 0602
TTITLE2=ELT 0603
TTITLE3=ELT 0604
TTITLE4=ELT 0605
TTITLE5=ELT 0606
TTITLE6=ELT 0607
TTITLE7=ELT 0608
TTITLE8=ELT 0609
TTITLE9=ELT 0610
TTITLE10=ELT 0611
TTITLE11=ELT 0612
TTITLE12=ELT 0613
TTITLE13=ELT 0614
TTITLE14=ELT 0615
TTITLE15=ELT 0616
TTITLE16=ELT 0617
TTITLE17=ELT 0618
TTITLE18=ELT 0619
TTITLE19=ELT 0620
EXTD=Every Living Thing by James Herriot 10 CDs\nread by Christopher Timothy BBC Audiobooks\njungle country
EXTT0=
EXTT1=
EXTT2=
EXTT3=
EXTT4=
EXTT5=
EXTT6=
EXTT7=
EXTT8=
EXTT9=
EXTT10=
EXTT11=
EXTT12=
EXTT13=
EXTT14=
EXTT15=
EXTT16=
EXTT17=
EXTT18=
EXTT19=
PLAYORDER=
